/* XPM */
/* XJukebox icon by Raphael Quinet <quinet@montefiore.ulg.ac.be> */
static char * xjukebox_xpm[] = {
"48 64 8 1",
" 	s mask c none",
".	c #FFFFFFFF7F7F",
"X	c #0000FFFF0000",
"o	c #FFFF0000FFFF",
"O	c #0000FFFFFFFF",
"+	c #FFFFFFFFFFFF",
"@	c #7F7F7F7F7F7F",
"#	c #B3B3B3B3B3B3",
"                   ..........                   ",
"               ..................               ",
"             ......................             ",
"           ........XXXXXXXXXX........           ",
"         .......XXXXXXXXXXXXXXXX.......         ",
"        .....XXXXXXooooooooooXXXXXX.....        ",
"       ....XXXXXooooooooooooooooXXXXX....       ",
"      ....XXXXooooooOOOOOOOOooooooXXXX....      ",
"     ....XXXoooooOOOOOOOOOOOOOOoooooXXX....     ",
"    ....XXXooooOOOOOOOOOOOOOOOOOOooooXXX....    ",
"   ....XXooooOOOOOOOOOOOOOOOOOOOOOOooooXX....   ",
"   ...XXXoooOOOOOOOOOOOOOOOOOO+OOOOOoooXXX...   ",
"  ...XXXoooOOOOOOOOOOOOOOOOOOOOO+OOOOoooXXX...  ",
"  ...XXoooOOOOOOOOOOOOOOOOOOOOOOO+OOOOoooXX...  ",
" ...XXXooOOOOOOOOOOOOOOOOOOOOOO+OOOOOOOooXXX... ",
" ...XXoooOOOOOOOOOOOOOOOOOOOOOOOOOO+OOOoooXX... ",
" ...XXooOOOOOOOOOOOOOOOOOOOOOOOOO+OO+OOOooXX... ",
"...XXoooOOOOOOOOOOOOOOOOOOOOOOOOOO+OOOOOoooXX...",
"...XXoooOOOOOOOOOOOOOOOOOOOOOOOOOOOOOOOOoooXX...",
"...XXooOOOOOOOOOOOOOOOOOOOOOOOOOOOOOOOOOOooXX...",
"...XXooOOOOOOOOOOOOOOOOOOOOOOOOOOOOOOOOOOooXX...",
"...XXooOOOOOOOOOOOOOOOOOOOOOOOOOOOOOOOOOOooXX...",
"...XXooOOOOOOOOOOOOOOOOOOOOOOOOOOOOOOOOOOooXX...",
"...XXoo@@@############################@@@ooXX...",
"...XXoo@@@############################@@@ooXX...",
"...XXoo@@###+#+++#+#+++#+#+++#+#+++####@@ooXX...",
"...XXoo@@##############################@@ooXX...",
"...XXoo@@###+#+++#+#+++#+#+++#+#+++####@@ooXX...",
"...XXoo@@##############################@@ooXX...",
"...XXoo@####+#+++#+#+++#+#+++#+#+++#####@ooXX...",
"...XXoo@################################@ooXX...",
"...XXoo@@@@@@@@@@@@@@@@@@@@@@@@@@@@@@@@@@ooXX...",
"...XXoo##################################ooXX...",
"...XXoo##################################ooXX...",
"...XXoo##################################ooXX...",
"...XXoo##################################ooXX...",
"...XXoo####@@@@@@@@@@@@@@@@@@@@@@@@@@####ooXX...",
"...XXoo####@########################@####ooXX...",
"...XXoo####@#@##################@#@#@####ooXX...",
"...XXoo####@####################@###@####ooXX...",
"...XXoo####@#################@#@@@##@####ooXX...",
"...XXoo####@############@#@###@@####@####ooXX...",
"...XXoo####@#############@@##@@@####@####ooXX...",
"...XXoo####@#########@@###@@@@@#####@####ooXX...",
"...XXoo####@##########@@###@@##@####@####ooXX...",
"...XXoo####@###########@##@@###@####@####ooXX...",
"...XXoo####@############@@@@########@####ooXX...",
"...XXoo####@###########@@@##########@####ooXX...",
"...XXoo####@##########@@#@##########@####ooXX...",
"...XXoo####@####@####@@#############@####ooXX...",
"...XXoo####@#####@##@@@#############@####ooXX...",
"...XXoo####@#####@#@@@##############@####ooXX...",
"...XXoo####@###@##@@@###############@####ooXX...",
"...XXoo####@###@@#@@################@####ooXX...",
"...XXoo####@@@@#@@@@################@####ooXX...",
"...XXoo####@###@@@################@#@####ooXX...",
"...XXoo####@#@###@################@#@####ooXX...",
"...XXoo####@########################@####ooXX...",
"...XXoo####@@@@@@@@@@@@@@@@@@@@@@@@@@####ooXX...",
"...XXoo##################################ooXX...",
"...XXoo##################################ooXX...",
"...XXoo##################################ooXX...",
"...XXoo##################################ooXX...",
"@@@@@@@@@@@@@@@@@@@@@@@@@@@@@@@@@@@@@@@@@@@@@@@@"};
